<svg xmlns="http://www.w3.org/2000/svg" data-name="Layer 1" viewBox="0 0 100 125" x="0px" y="0px"><title>Artboard 31</title><path d="M50,18A30,30,0,0,0,20,48v2A16,16,0,0,0,36,66H46V82h8V66H64A16,16,0,0,0,80,50V48A30,30,0,0,0,50,18ZM72,50a8,8,0,0,1-8,8H54a8,8,0,0,1,8-8h4V42H62a15.88,15.88,0,0,0-8,2.16V34H46V44.16A15.88,15.88,0,0,0,38,42H34v8h4a8,8,0,0,1,8,8H36a8,8,0,0,1-8-8V48a22,22,0,0,1,44,0Z"/><text x="0" y="115" fill="#000000" font-size="5px" font-weight="bold" font-family="'Helvetica Neue', Helvetica, Arial-Unicode, Arial, Sans-serif">Created by Gregor Cresnar</text><text x="0" y="120" fill="#000000" font-size="5px" font-weight="bold" font-family="'Helvetica Neue', Helvetica, Arial-Unicode, Arial, Sans-serif">from the Noun Project</text></svg>